<svg xmlns="http://www.w3.org/2000/svg" xmlns:ev="http://www.w3.org/2001/xml-events" xmlns:xlink="http://www.w3.org/1999/xlink" width="319.347" height="409.455" class="st14" color-interpolation-filters="sRGB" viewBox="0 0 239.51 307.092" xml:space="preserve"><style type="text/css">.st1{fill:#fff;stroke:#000;stroke-dasharray:3.5,2.5;stroke-linecap:round;stroke-linejoin:round;stroke-width:.5}.st2{fill:#000;font-family:Arial;font-size:.75em}.st3{fill:none;stroke:#000;stroke-dasharray:3.5,2.5;stroke-linecap:round;stroke-linejoin:round;stroke-width:.5}.st4{fill:#000;font-family:Arial;font-size:.583328em}.st5{fill:#548bd4;stroke:#000;stroke-linecap:round;stroke-linejoin:round;stroke-width:1.4}.st6{fill:#fff;font-family:Arial;font-size:.75em}.st7,.st8{fill:#7f7f7f;stroke:#000;stroke-linecap:round;stroke-linejoin:round;stroke-width:1.4}.st8{fill:#c6d8f0}.st9{font-size:1em}.st10{fill:#fbd7bb;stroke:#000;stroke-linecap:round;stroke-linejoin:round;stroke-width:1.4}.st11{font-size:.888885em}.st12{marker-end:url(#mrkr3-44);stroke:#000;stroke-linecap:round;stroke-linejoin:round;stroke-width:.5}.st13{fill:#000;fill-opacity:1;stroke:#000;stroke-opacity:1;stroke-width:.16556291390728}.st14{fill:none;fill-rule:evenodd;font-size:12px;overflow:visible;stroke-linecap:square;stroke-miterlimit:3}</style><defs id="Markers"><g id="lend3"><path d="M 2 1 L 0 0 L 2 -1" style="stroke-linecap:round;stroke-linejoin:round;fill:none"/></g><marker id="mrkr3-44" class="st13" markerUnits="strokeWidth" orient="auto" overflow="visible"><use transform="scale(-6.04,-6.04)" xlink:href="#lend3"/></marker></defs><g><title>Page-1</title><g id="shape48-1" transform="translate(0.7,-0.25)"><title>agent.48</title><desc>open-ux-tools</desc><path d="M0 307.09 L238.11 307.09 L238.11 57.52 L0 57.52 L0 307.09 Z" class="st1"/><text x="91.79" y="71.62" class="st2">open-ux-tools</text></g><g id="shape22-4" transform="translate(12.0386,-90.9587)"><title>agent.22</title><desc>@sap-ux/{name}-writer</desc><path d="M0 307.09 L215.43 307.09 L215.43 171.03 L0 171.03 L0 307.09 Z" class="st3"/><text x="2.8" y="303.39" class="st4">@sap-ux/{name}-writer</text></g><g id="shape16-7" transform="translate(23.3772,-11.5886)"><title>agent.16</title><desc>@sap-ux/{name}</desc><path d="M0 307.09 L192.76 307.09 L192.76 250.4 L0 250.4 L0 307.09 Z" class="st3"/><text x="2.8" y="303.39" class="st4">@sap-ux/{name}</text></g><g id="shape10-10" transform="translate(23.3772,-102.297)"><title>agent.10</title><path d="M0 307.09 L192.76 307.09 L192.76 250.4 L0 250.4 L0 307.09 Z" class="st1"/></g><g id="shape1-12" transform="translate(36.2195,-113.636)"><title>agent</title><desc>ui5-application</desc><path d="M0 307.09 L79.37 307.09 L79.37 273.08 L0 273.08 L0 307.09 Z" class="st5"/><text x="10.67" y="292.78" class="st6">ui5-application</text></g><g id="shape2-15" transform="translate(126.928,-113.636)"><title>agent.2</title><desc>odata-service</desc><path d="M0 307.09 L79.37 307.09 L79.37 273.08 L0 273.08 L0 307.09 Z" class="st5"/><text x="12.67" y="292.78" class="st6">odata-service</text></g><g id="shape3-18" transform="translate(80.0701,-181.667)"><title>agent.3</title><desc>fiori-freestyle</desc><path d="M0 307.09 L79.37 307.09 L79.37 273.08 L0 273.08 L0 307.09 Z" class="st5"/><text x="13.93" y="292.78" class="st6">fiori-freestyle</text></g><g id="shape4-21" transform="translate(34.7157,-22.9272)"><title>agent.4</title><desc>ui5-config</desc><path d="M0 307.09 L79.37 307.09 L79.37 273.08 L0 273.08 L0 307.09 Z" class="st7"/><text x="20.17" y="292.78" class="st6">ui5-config</text></g><g id="shape5-24" transform="translate(125.424,-22.9272)"><title>agent.5</title><desc>yaml</desc><path d="M0 307.09 L79.37 307.09 L79.37 273.08 L0 273.08 L0 307.09 Z" class="st7"/><text x="30.18" y="292.78" class="st6">yaml</text></g><g id="shape26-27" transform="translate(0.7,-261.037)"><title>agent.26</title><desc>SAP Fiori generator (@sap/generator-fiori)</desc><path d="M0 307.09 L113.39 307.09 L113.39 261.74 L0 261.74 L0 307.09 Z" class="st8"/><text x="17.17" y="281.71" class="st2">SAP Fiori generator<tspan x="12.61" class="st9" dy="1.2em">(@sap/generator</tspan>-fiori)</text></g><g id="shape27-31" transform="translate(125.424,-261.037)"><title>agent.27</title><desc>easyUI5 generator (generator-easy-ui5)</desc><path d="M0 307.09 L113.39 307.09 L113.39 261.74 L0 261.74 L0 307.09 Z" class="st10"/><text x="19.67" y="281.71" class="st2">easyUI5 generator<tspan x="20.45" class="st11" dy="1.35em">(generator</tspan><tspan class="st11">-</tspan><tspan class="st11">easy</tspan><tspan class="st11">-</tspan><tspan class="st11">ui5)</tspan></text></g><g id="shape47-39" transform="translate(364.485,46.0543) rotate(90)"><title>Annotation Arrow</title><path d="M0 307.09 L34.02 307.09" class="st12"/></g><g id="shape49-45" transform="translate(489.209,46.0543) rotate(90)"><title>Annotation Arrow.49</title><path d="M0 307.09 L34.02 307.09" class="st12"/></g><g id="shape50-50" transform="translate(426.847,125.424) rotate(90)"><title>Annotation Arrow.50</title><path d="M0 307.09 L22.68 307.09" class="st12"/></g><g id="shape51-55" transform="translate(426.847,216.133) rotate(90)"><title>Annotation Arrow.51</title><path d="M0 307.09 L22.68 307.09" class="st12"/></g></g></svg>